<svg width="72" height="72" viewBox="0 0 72 72" fill="none" xmlns="http://www.w3.org/2000/svg">
<g clip-path="url(#clip0)">
<path d="M22.3003 30.3989L19.045 34.9998C17.1571 37.6681 16.9276 41.1705 18.4514 44.0623L22.2464 51.2644L25.9781 44.6064" fill="#B2F0FB"/>
<path d="M46.0752 44.6595L49.7539 51.2647L53.549 44.0626C55.0728 41.1709 54.8433 37.6684 52.9554 35L49.7001 30.3992" fill="#B2F0FB"/>
<path d="M36.0003 31.7547C39.9985 31.7547 43.2398 28.5134 43.2398 24.5152C43.2398 20.5169 39.9985 17.2756 36.0003 17.2756C32.002 17.2756 28.7607 20.5169 28.7607 24.5152C28.7607 28.5134 32.002 31.7547 36.0003 31.7547Z" fill="#B2F0FB"/>
<path d="M71.7823 66.0978C69.6928 62.7959 66.12 60.8245 62.2257 60.8245C59.9036 60.8245 57.6937 61.5187 55.8259 62.8102C55.1011 61.1815 53.9949 59.7276 52.5988 58.5946C50.5955 56.9689 48.0705 56.0737 45.4891 56.0737C43.0069 56.0737 40.6506 56.8652 38.6748 58.3627C37.6227 59.1603 36.7163 60.1433 36.0001 61.2482C35.2839 60.1434 34.3778 59.1603 33.3255 58.3627C31.3497 56.8652 28.9934 56.0737 26.5112 56.0737C23.9299 56.0737 21.4048 56.9689 19.4015 58.5946C18.0052 59.7276 16.8992 61.1815 16.1744 62.8102C14.3066 61.5187 12.0967 60.8245 9.77456 60.8245C5.88009 60.8245 2.30752 62.7959 0.217969 66.0979C0.0755156 66.3229 0 66.5836 0 66.8498V70.5937C0 71.3704 0.629719 71.9999 1.40625 71.9999H70.5938C71.3703 71.9999 72 71.3704 72 70.5937V66.8497C72.0003 66.5835 71.9248 66.3228 71.7823 66.0978ZM69.1878 69.1874H2.81278V67.2739C4.40705 64.9894 6.98133 63.637 9.77484 63.637C12.0769 63.637 14.2324 64.5461 15.8442 66.1969C16.2044 66.5656 16.7375 66.7079 17.2332 66.5676C17.7292 66.4272 18.1087 66.0269 18.222 65.5242C19.1046 61.6159 22.5135 58.8862 26.5113 58.8862C30.2349 58.8862 33.5829 61.3843 34.653 64.9609C34.8311 65.5562 35.3787 65.9642 36.0001 65.9642C36.6216 65.9642 37.1692 65.5564 37.3473 64.9609C38.4173 61.3843 41.7653 58.8862 45.489 58.8862C49.4869 58.8862 52.8957 61.6159 53.7782 65.5242C53.8917 66.0269 54.2711 66.4272 54.7671 66.5676C55.2627 66.7075 55.7956 66.5656 56.1561 66.1969C57.7679 64.5461 59.9234 63.637 62.2254 63.637C65.019 63.637 67.5932 64.9894 69.1875 67.2738V69.1874H69.1878Z" fill="#020288"/>
<path d="M26.6118 47.5497H30.4047C30.3982 47.6608 30.3949 47.7726 30.3949 47.8848C30.3949 52.4642 35.2058 54.7417 35.4105 54.8365C35.5978 54.9231 35.7994 54.9663 36.0007 54.9663C36.2112 54.9663 36.4219 54.919 36.616 54.8245C36.8196 54.7254 41.6066 52.3455 41.6066 47.8848C41.6066 47.7726 41.6032 47.6608 41.5968 47.5497H45.3896C46.0295 47.5497 46.5887 47.1176 46.7502 46.4984C46.9496 45.7343 51.6325 27.7348 51.6325 23.5628C51.6325 18.2681 49.1223 12.7248 44.1719 7.08685C40.5525 2.96499 36.9761 0.373272 36.8256 0.26485C36.3351 -0.0881191 35.6738 -0.0884004 35.1829 0.264709C35.0324 0.373131 31.4542 2.96457 27.8332 7.08629C22.8804 12.7241 20.3691 18.2674 20.3691 23.5622C20.3691 27.7341 25.0518 45.7341 25.2512 46.4983C25.4127 47.1176 25.9719 47.5497 26.6118 47.5497ZM38.7941 47.8848C38.7941 49.8654 36.9675 51.3099 35.9886 51.9419C35.0135 51.329 33.2074 49.919 33.2074 47.8848C33.2074 47.7719 33.214 47.66 33.227 47.5497H38.7746C38.7875 47.66 38.7941 47.7719 38.7941 47.8848ZM36.0037 3.18113C37.2462 4.17268 39.7166 6.26982 42.1597 9.07121H29.8447C32.2892 6.26954 34.761 4.1724 36.0037 3.18113ZM27.6053 11.8837H44.398C46.8449 15.2836 48.8198 19.3367 48.8198 23.5628C48.8198 26.5312 45.7782 38.9858 44.3007 44.7372H27.7006C26.2232 38.9859 23.1816 26.5312 23.1816 23.5623C23.1816 19.3363 25.1574 15.2833 27.6053 11.8837Z" fill="#020288"/>
</g>
<defs>
<clipPath id="clip0">
<rect width="72" height="72" fill="white"/>
</clipPath>
</defs>
</svg>
