<svg width="72" height="72" viewBox="0 0 72 72" fill="none" xmlns="http://www.w3.org/2000/svg">
<g clip-path="url(#clip0)">
<path d="M14.2061 31.4688H23.8764V53.7287H14.2061V31.4688Z" fill="#B2F0FB"/>
<path d="M31.165 31.4688H40.8354V53.7287H31.165V31.4688Z" fill="#B2F0FB"/>
<path d="M48.123 31.4688H57.7934V53.7287H48.123V31.4688Z" fill="#B2F0FB"/>
<path d="M7.52832 27.3293H9.15521V31.4686C9.15521 32.2453 9.78493 32.8749 10.5615 32.8749H61.4377C62.2143 32.8749 62.844 32.2453 62.844 31.4686V27.3293H64.4709C65.2476 27.3293 65.8771 26.6997 65.8771 25.9231V19.0521C65.8771 18.2755 65.2476 17.6459 64.4709 17.6459H62.8495L36.6108 4.98569C36.2247 4.79937 35.7748 4.79937 35.3887 4.98569L9.14973 17.646H7.52832C6.75165 17.646 6.12207 18.2756 6.12207 19.0523V25.9232C6.12207 26.6997 6.75179 27.3293 7.52832 27.3293ZM11.9677 27.3293H26.114V30.0624H11.9677V27.3293ZM28.9265 27.3293H43.0728V30.0624H28.9265V27.3293ZM60.0316 30.0625H45.8853V27.3295H60.0316V30.0625ZM63.0648 24.5168H8.93457V20.4584H63.0648V24.5168ZM35.9997 7.81352L56.3775 17.6459H15.6219L35.9997 7.81352Z" fill="#020288"/>
<path d="M70.5938 64.3418H68.4696V59.2741C68.4696 58.4974 67.8399 57.8678 67.0634 57.8678H62.8445V53.7285C62.8445 52.9518 62.2148 52.3223 61.4382 52.3223H10.5618C9.78525 52.3223 9.15553 52.9518 9.15553 53.7285V57.8678H4.93664C4.16011 57.8678 3.53039 58.4974 3.53039 59.2741V64.3418H1.40625C0.629578 64.3418 0 64.9713 0 65.748C0 66.5247 0.629578 67.1543 1.40625 67.1543H70.5938C71.3703 67.1543 72 66.5247 72 65.748C72 64.9713 71.3703 64.3418 70.5938 64.3418ZM60.032 57.868H45.8857V55.1349H60.032V57.868ZM43.0732 57.868H28.9268V55.1349H43.0732V57.868ZM11.968 55.1348H26.1143V57.8678H11.968V55.1348ZM6.34289 64.3418V60.6803H65.657V64.3418H6.34289Z" fill="#020288"/>
</g>
<defs>
<clipPath id="clip0">
<rect width="72" height="72" fill="white"/>
</clipPath>
</defs>
</svg>
