<svg width="72" height="72" viewBox="0 0 72 72" fill="none" xmlns="http://www.w3.org/2000/svg">
<path d="M63.7538 24.7513V18.5965C60.1849 18.5965 59.6352 16.8751 59.6352 13.3062H34.3852C34.3852 16.8751 33.8355 18.5965 30.2666 18.5965V24.7513C33.8355 24.7513 34.3852 26.4727 34.3852 30.0417H59.6352C59.6352 26.4727 60.1849 24.7513 63.7538 24.7513Z" fill="#A4FCC4"/>
<path d="M70.5934 5.76685H23.4268C22.6501 5.76685 22.0205 6.39642 22.0205 7.1731V36.1746C22.0205 36.9513 22.6501 37.5809 23.4268 37.5809H70.5934C71.3699 37.5809 71.9996 36.9513 71.9996 36.1746V7.1731C71.9996 6.39642 71.3699 5.76685 70.5934 5.76685ZM69.1871 34.7684H24.833V8.57935H69.1871V34.7684Z" fill="#020288"/>
<path d="M69.7653 43.4753C67.5187 41.8964 64.4861 42.1703 62.5544 44.1271C62.4925 44.1898 62.4365 44.2582 62.3874 44.3314L59.3024 48.9278C58.4387 46.8891 56.432 45.457 54.1005 45.457L31.9054 45.4421H31.9044C31.5678 45.4421 31.2425 45.5628 30.9874 45.7823L25.4271 50.5659H21.3694V49.33C21.3694 48.5533 20.7397 47.9237 19.9631 47.9237H13.7714V47.7313C13.7714 46.9547 13.1417 46.3251 12.3652 46.3251H1.40625C0.629578 46.3251 0 46.9547 0 47.7313V64.2236C0 65.0002 0.629578 65.6298 1.40625 65.6298H12.3652C13.1417 65.6298 13.7714 65.0002 13.7714 64.2236V64.0312H19.963C20.7395 64.0312 21.3692 63.4016 21.3692 62.6249V61.3264H26.0319L30.2442 65.7917C30.5101 66.0735 30.8803 66.2329 31.2671 66.2329C31.2737 66.2329 31.2803 66.2328 31.287 66.2328L60.328 65.8254C60.7811 65.8191 61.2034 65.5948 61.4623 65.223L70.6895 51.9727C70.6953 51.9644 70.701 51.956 70.7065 51.9477C71.6001 50.6039 72.0572 49.0628 71.9942 47.6083C71.9203 45.9011 71.1287 44.4334 69.7653 43.4753ZM10.9589 62.8173H2.8125V49.1376H10.9589V62.8173ZM18.5567 61.2185H13.7714V50.7359H18.5567V61.2185ZM68.3724 50.3785L59.5668 63.0235L31.8659 63.412L27.6618 58.9553C27.396 58.6736 27.026 58.514 26.6389 58.514H21.3694V53.3784H25.9488C26.2855 53.3784 26.6108 53.2578 26.8658 53.0382L32.4257 48.255L54.0996 48.2695C55.6671 48.2695 56.9424 49.5683 56.9424 51.1648C56.9424 52.7612 55.6673 54.0599 54.0996 54.0599C54.0977 54.0599 54.0959 54.0599 54.0941 54.0599H41.961C41.5749 54.0599 41.2061 54.2185 40.9404 54.4986L37.982 57.6191C37.4476 58.1827 37.4714 59.0727 38.035 59.6071C38.307 59.8649 38.6549 59.9928 39.0022 59.9928C39.3747 59.9928 39.7465 59.8458 40.023 59.5541L42.5655 56.8722L56.6065 56.8729H56.6069C57.0755 56.8729 57.5134 56.6395 57.7745 56.2504L64.6415 46.0196C65.6068 45.1201 67.0624 45.0129 68.148 45.7761C69.6136 46.8063 69.3706 48.8683 68.3724 50.3785Z" fill="#020288"/>
</svg>
